# xmcd CD database file
#
# Track frame offsets:
#	150
#	30355
#	61200
#	80060
#	102075
#	131437
#	146387
#	165052
#	195365
#	226382
#	268147
#
# Disc length: 3923 seconds
#
# Revision: 0
# Processed by: cddbd v1.5.2PL0 Copyright (c) Steve Scherf et al.
# Submitted via: CDex 1.70beta2
#
DISCID=810f510b
DTITLE=Joe Vanenkhuizen Quartet - Ellington My Way
DYEAR=1993
DGENRE=Jazz
TTITLE0=The Mooche
TTITLE1=Isfahan
TTITLE2=Timon Of Athens
TTITLE3=Warm Valley
TTITLE4="G" For Grove
TTITLE5=In A Sentimental Mood
TTITLE6=Minor
TTITLE7=Transblucency
TTITLE8=I Got It Bad
TTITLE9=Blue Reverie
TTITLE10=What Am I Here Fore?
EXTD=YEAR: 1993
EXTT0=
EXTT1=
EXTT2=
EXTT3=
EXTT4=
EXTT5=
EXTT6=
EXTT7=
EXTT8=
EXTT9=
EXTT10=
PLAYORDER=
